<svg width="1411" height="832" viewBox="0 0 1411 832" fill="none" xmlns="http://www.w3.org/2000/svg">
    <path opacity="0.04" d="M1410.7 14.3476L66.8633 373.566L183.44 525.398C187.443 524.84 191.575 524.761 195.707 524.682C199.354 524.732 203.486 524.653 207.618 524.573C211.878 524.972 215.526 525.022 219.302 525.551C223.562 525.95 227.338 526.478 231.243 527.485C241.117 529.458 251.249 532.388 260.669 536.534C269.96 540.201 279.024 544.955 287.377 550.924C295.6 556.414 303.596 562.991 310.624 569.826C317.78 577.14 323.967 584.713 329.926 593.371C338.752 606.902 345.156 621.08 349.751 636.255C353.862 651.559 356.034 667.381 355.529 682.894C355.023 698.406 351.967 714.088 346.717 729.332C341.338 744.097 333.636 757.945 324.096 770.747C323.74 771.355 322.899 772.092 322.543 772.7C321.703 773.437 320.734 773.696 320.379 774.303C319.894 774.433 318.925 774.692 317.957 774.951C316.988 775.21 316.504 775.339 315.406 775.12C314.922 775.249 314.309 774.901 313.825 775.03L313.212 774.681C312.115 774.462 311.502 774.113 310.889 773.764C310.276 773.416 309.535 772.589 308.922 772.24C308.181 771.413 307.568 771.064 307.311 770.108L232.514 657.854C229.905 653.939 226.455 650.76 222.65 648.189C218.36 645.748 213.586 643.436 209.197 642.559C204.324 641.811 199.579 641.541 194.607 642.358C190.119 643.045 185.404 644.818 181.43 647.418C179.265 649.022 177.585 650.496 175.904 651.971C174.223 653.445 172.672 655.398 171.119 657.35C169.567 659.303 168.628 661.604 167.689 663.906C166.749 666.207 165.81 668.509 165.355 670.681C164.9 672.853 164.573 675.503 164.731 678.024C164.889 680.544 165.047 683.065 165.077 685.107C165.719 687.499 166.361 689.89 166.875 691.803C168.002 694.065 169.128 696.327 170.126 698.11L243.184 807.753C251.713 825.976 237.637 827.689 221.139 830.049C215.069 830.646 209.484 831.114 203.899 831.581C198.186 831.571 192.472 831.56 186.63 831.072C180.788 830.583 174.818 829.616 169.332 828.519C159.457 826.546 149.325 823.616 139.906 819.47C130.614 815.803 121.55 811.049 113.198 805.08C104.975 799.59 96.9784 793.013 89.9509 786.178C82.7951 778.864 76.608 771.291 70.6483 762.633C62.8207 750.885 56.802 738.142 52.721 724.88C48.64 711.619 45.8834 697.491 45.8057 683.672C45.1153 669.504 47.1038 655.645 50.1893 642.006C53.4033 628.844 58.6831 615.644 65.673 603.011L-77.9639 412.28L-748.146 591.426L-752 577.078L-89.0833 399.875L-70.1926 394.825L80.2443 593.477L82.9821 597.871L86.3323 602.614L83.4851 607.476L80.6377 612.338C74.2312 623.277 69.5346 634.784 67.0324 646.73C64.046 658.805 62.7697 671.448 62.9464 683.703C63.123 695.958 65.3655 708.173 69.0612 720C72.6284 731.348 78.2617 742.657 85.2195 753.099L87.0873 756.188C91.4361 762.715 96.625 768.504 101.686 773.815C108.1 780.301 114.742 785.702 122.353 790.844C129.351 795.637 137.189 799.693 145.996 803.489C154.191 806.937 162.741 809.778 172.003 811.403C177.004 812.629 182.362 813.247 187.107 813.516C192.464 814.135 197.209 814.404 202.309 814.066C207.41 813.727 212.511 813.389 217.611 813.051C219.064 812.662 220.646 812.752 222.099 812.364L153.39 709.247C151.522 706.159 149.654 703.07 148.271 699.852C146.887 696.633 145.86 692.807 144.961 689.46C144.546 685.982 144.002 682.027 144.2 678.898C144.27 675.292 144.34 671.685 145.506 668.298C146.06 664.561 147.227 661.174 149.007 658.135C150.174 654.748 151.953 651.709 154.217 648.541C155.997 645.503 158.389 642.813 161.266 639.993C164.143 637.174 166.663 634.963 169.797 633.1L172.931 631.237L173.415 631.107C178.842 628.119 184.042 626.216 189.983 625.141C197.377 623.677 204.672 623.777 211.868 625.442C219.064 627.106 226.033 629.857 231.677 633.474C237.449 637.57 242.865 642.273 246.601 648.45L251.82 656.282L315.31 751.567C321.261 742.8 325.503 733.464 329.132 723.78C333.927 710.709 336.4 696.721 336.807 682.772C337.214 668.824 335.554 654.915 331.958 641.524C328.489 628.611 322.471 615.868 314.643 604.12C309.553 596.767 303.979 589.543 297.693 583.534C291.278 577.048 284.636 571.647 277.154 566.983C269.672 562.32 262.189 557.656 253.51 554.338C245.316 550.89 236.766 548.049 227.504 546.425C223.728 545.896 220.437 545.238 216.661 544.71C212.885 544.181 209.237 544.131 206.074 543.952C202.911 543.772 199.263 543.722 195.132 543.801C191.484 543.751 187.965 544.179 184.446 544.607L178.861 545.075L173.276 545.543L169.925 540.8L167.188 536.406L36.8536 366.211L56.2285 361.032L57.1972 360.773L1406.84 7.98657e-05L1410.7 14.3476Z" fill="white"/>
</svg>
