<svg width="99" height="100" viewBox="0 0 99 100" fill="none" xmlns="http://www.w3.org/2000/svg">
    <path fill-rule="evenodd" clip-rule="evenodd" d="M65.8306 13.323C57.927 9.80138 49.0968 8.92896 40.6569 10.8358C32.217 12.7427 24.6196 17.3268 18.9978 23.9043C13.376 30.4818 10.031 38.7003 9.46166 47.3342C8.89234 55.9681 11.1292 64.5547 15.8387 71.8135C20.5481 79.0722 27.4778 84.6142 35.5942 87.6128C43.7107 90.6114 52.579 90.906 60.8765 88.4527C69.1741 85.9993 76.4563 80.9295 81.6371 73.9993C86.8179 67.0691 89.6197 58.6499 89.6247 49.9973V45.8981C89.6247 43.4359 91.6208 41.4398 94.083 41.4398C96.5453 41.4398 98.5414 43.4359 98.5414 45.8981V49.9998C98.5353 60.5753 95.1109 70.868 88.7788 79.3382C82.4467 87.8084 73.5462 94.0049 63.4047 97.0034C53.2633 100.002 42.4242 99.6418 32.5041 95.9769C22.584 92.3119 14.1144 85.5384 8.35843 76.6666C2.60243 67.7948 -0.131516 57.3001 0.564314 46.7475C1.26015 36.195 5.34848 26.1501 12.2196 18.1109C19.0907 10.0717 28.3764 4.46904 38.6918 2.1384C49.0073 -0.192235 59.7997 0.874065 69.4597 5.17827C71.7088 6.18042 72.7196 8.81608 71.7175 11.0652C70.7153 13.3143 68.0797 14.3252 65.8306 13.323Z" fill="url(#paint0_linear_2211_9)"/>
    <path fill-rule="evenodd" clip-rule="evenodd" d="M97.2336 11.1792C98.9756 12.9195 98.977 15.7423 97.2368 17.4843L52.6534 62.1122C51.8175 62.949 50.6833 63.4193 49.5005 63.4196C48.3177 63.4199 47.1832 62.9501 46.3468 62.1138L32.9718 48.7388C31.2307 46.9977 31.2307 44.1748 32.9718 42.4337C34.7129 40.6926 37.5358 40.6926 39.2769 42.4337L49.4978 52.6546L90.9286 11.1824C92.6688 9.44043 95.4917 9.43902 97.2336 11.1792Z" fill="url(#paint1_linear_2211_9)"/>
    <defs>
        <linearGradient id="paint0_linear_2211_9" x1="0.458009" y1="29.0713" x2="99.5164" y2="31.2439" gradientUnits="userSpaceOnUse">
            <stop stop-color="#6600FF"/>
            <stop offset="1" stop-color="#A358E8"/>
        </linearGradient>
        <linearGradient id="paint1_linear_2211_9" x1="31.666" y1="25.2361" x2="99.1877" y2="27.0858" gradientUnits="userSpaceOnUse">
            <stop stop-color="#6600FF"/>
            <stop offset="1" stop-color="#A358E8"/>
        </linearGradient>
    </defs>
</svg>
