<svg width="30" height="28" viewBox="0 0 30 28" fill="none" xmlns="http://www.w3.org/2000/svg">
    <path d="M28.077 4.38424H1.92311C0.860742 4.38424 0 3.5235 0 2.46119C0 1.39889 0.860742 0.538086 1.92311 0.538086H28.077C29.1393 0.538086 30 1.39883 30 2.46119C30 3.52355 29.1393 4.38424 28.077 4.38424Z" fill="#BDBDBD"/>
    <path d="M17.3077 15.9233H1.92311C0.860742 15.9233 0 15.0625 0 14.0002C0 12.9379 0.860742 12.0771 1.92311 12.0771H17.3077C18.37 12.0771 19.2308 12.9379 19.2308 14.0002C19.2308 15.0626 18.37 15.9233 17.3077 15.9233Z" fill="#BDBDBD"/>
    <path d="M28.0772 15.9233H25.0003C23.9379 15.9233 23.0771 15.0626 23.0771 14.0002C23.0771 12.9379 23.9379 12.0771 25.0003 12.0771H28.0772C29.1395 12.0771 30.0002 12.9379 30.0002 14.0002C30.0002 15.0626 29.1395 15.9233 28.0772 15.9233Z" fill="#BDBDBD"/>
    <path d="M28.077 27.4624H1.92311C0.860742 27.4624 0 26.6016 0 25.5393C0 24.477 0.860742 23.6162 1.92311 23.6162H28.077C29.1393 23.6162 30 24.477 30 25.5393C30 26.6016 29.1393 27.4624 28.077 27.4624Z" fill="#BDBDBD"/>
</svg>
