<svg width="30" height="31" viewBox="0 0 30 31" fill="none" xmlns="http://www.w3.org/2000/svg">
    <path d="M25.1514 22.8857C24.5988 21.5767 23.7968 20.3876 22.7901 19.3848C21.7865 18.379 20.5976 17.5772 19.2891 17.0234C19.2774 17.0176 19.2657 17.0146 19.254 17.0088C21.0792 15.6904 22.2657 13.543 22.2657 11.1201C22.2657 7.10645 19.0137 3.85449 15.0001 3.85449C10.9864 3.85449 7.73445 7.10645 7.73445 11.1201C7.73445 13.543 8.92097 15.6904 10.7462 17.0117C10.7344 17.0176 10.7227 17.0205 10.711 17.0264C9.39851 17.5801 8.22078 18.374 7.21003 19.3877C6.2043 20.3913 5.40243 21.5802 4.84871 22.8887C4.30473 24.1697 4.01135 25.5431 3.98445 26.9346C3.98367 26.9658 3.98915 26.9969 4.00058 27.0261C4.01201 27.0552 4.02915 27.0817 4.05099 27.1041C4.07283 27.1265 4.09893 27.1443 4.12776 27.1564C4.15658 27.1686 4.18755 27.1748 4.21882 27.1748H5.97664C6.10554 27.1748 6.20808 27.0723 6.21101 26.9463C6.2696 24.6846 7.17781 22.5664 8.78328 20.9609C10.4444 19.2998 12.6505 18.3857 15.0001 18.3857C17.3497 18.3857 19.5557 19.2998 21.2169 20.9609C22.8223 22.5664 23.7305 24.6846 23.7891 26.9463C23.7921 27.0752 23.8946 27.1748 24.0235 27.1748H25.7813C25.8126 27.1748 25.8436 27.1686 25.8724 27.1564C25.9012 27.1443 25.9273 27.1265 25.9492 27.1041C25.971 27.0817 25.9881 27.0552 25.9996 27.0261C26.011 26.9969 26.0165 26.9658 26.0157 26.9346C25.9864 25.5342 25.6964 24.1719 25.1514 22.8857ZM15.0001 16.1592C13.6553 16.1592 12.3897 15.6348 11.4376 14.6826C10.4854 13.7305 9.96101 12.4648 9.96101 11.1201C9.96101 9.77539 10.4854 8.50977 11.4376 7.55762C12.3897 6.60547 13.6553 6.08105 15.0001 6.08105C16.3448 6.08105 17.6104 6.60547 18.5626 7.55762C19.5147 8.50977 20.0391 9.77539 20.0391 11.1201C20.0391 12.4648 19.5147 13.7305 18.5626 14.6826C17.6104 15.6348 16.3448 16.1592 15.0001 16.1592Z" fill="url(#paint0_linear_125_7715)"/>
    <path d="M25.1514 22.8857C24.5988 21.5767 23.7968 20.3876 22.7901 19.3848C21.7865 18.379 20.5976 17.5772 19.2891 17.0234C19.2774 17.0176 19.2657 17.0146 19.254 17.0088C21.0792 15.6904 22.2657 13.543 22.2657 11.1201C22.2657 7.10645 19.0137 3.85449 15.0001 3.85449C10.9864 3.85449 7.73445 7.10645 7.73445 11.1201C7.73445 13.543 8.92097 15.6904 10.7462 17.0117C10.7344 17.0176 10.7227 17.0205 10.711 17.0264C9.39851 17.5801 8.22078 18.374 7.21003 19.3877C6.2043 20.3913 5.40243 21.5802 4.84871 22.8887C4.30473 24.1697 4.01135 25.5431 3.98445 26.9346C3.98367 26.9658 3.98915 26.9969 4.00058 27.0261C4.01201 27.0552 4.02915 27.0817 4.05099 27.1041C4.07283 27.1265 4.09893 27.1443 4.12776 27.1564C4.15658 27.1686 4.18755 27.1748 4.21882 27.1748H5.97664C6.10554 27.1748 6.20808 27.0723 6.21101 26.9463C6.2696 24.6846 7.17781 22.5664 8.78328 20.9609C10.4444 19.2998 12.6505 18.3857 15.0001 18.3857C17.3497 18.3857 19.5557 19.2998 21.2169 20.9609C22.8223 22.5664 23.7305 24.6846 23.7891 26.9463C23.7921 27.0752 23.8946 27.1748 24.0235 27.1748H25.7813C25.8126 27.1748 25.8436 27.1686 25.8724 27.1564C25.9012 27.1443 25.9273 27.1265 25.9492 27.1041C25.971 27.0817 25.9881 27.0552 25.9996 27.0261C26.011 26.9969 26.0165 26.9658 26.0157 26.9346C25.9864 25.5342 25.6964 24.1719 25.1514 22.8857ZM15.0001 16.1592C13.6553 16.1592 12.3897 15.6348 11.4376 14.6826C10.4854 13.7305 9.96101 12.4648 9.96101 11.1201C9.96101 9.77539 10.4854 8.50977 11.4376 7.55762C12.3897 6.60547 13.6553 6.08105 15.0001 6.08105C16.3448 6.08105 17.6104 6.60547 18.5626 7.55762C19.5147 8.50977 20.0391 9.77539 20.0391 11.1201C20.0391 12.4648 19.5147 13.7305 18.5626 14.6826C17.6104 15.6348 16.3448 16.1592 15.0001 16.1592Z" fill="url(#paint1_linear_125_7715)"/>
    <defs>
        <linearGradient id="paint0_linear_125_7715" x1="3.98438" y1="10.5447" x2="26.2359" y2="11.0058" gradientUnits="userSpaceOnUse">
            <stop stop-color="#CBCBCB"/>
            <stop offset="1" stop-color="#F8F8F8"/>
        </linearGradient>
        <linearGradient id="paint1_linear_125_7715" x1="3.98438" y1="10.5447" x2="26.2359" y2="11.0058" gradientUnits="userSpaceOnUse">
            <stop stop-color="#6600FF"/>
            <stop offset="1" stop-color="#A358E8"/>
        </linearGradient>
    </defs>
</svg>
